{"title":"Maria.Wern.2018.SWEDISH.WEBRiP.S07E02.eNJoY-iT","magnet":"magnet:?xt=urn:btih:ec4eceae3b5847f004108eeb9b1f34ca8d2ff78f&dn=Maria.Wern.2018.SWEDISH.WEBRiP.S07E02.eNJoY-iT&tr=udp%3A%2F%2Ftracker.leechers-paradise.org%3A6969&tr=udp%3A%2F%2Fzer0day.ch%3A1337&tr=udp%3A%2F%2Fopen.demonii.com%3A1337&tr=udp%3A%2F%2Ftracker.coppersurfer.tk%3A6969&tr=udp%3A%2F%2Fexodus.desync.com%3A6969","uploader":"Sunblock.","categoryP":"video","categoryS":"hd___tv_shows","size":"1665961663","seeders":"6","leechers":"11","description":"Maria.Wern.2018.SWEDISH.WEBRiP.S07E02.eNJoY-iT\r\n\r\nMaria Wern: Ringar p&#xE5; vattnet\r\n\r\nEtt flygplan p&#xE5; v&#xE4;g fr&#xE5;n Visby m&#xE5;ste n&#xF6;dlanda efter att en man mystiskt insjuknat ombord. \r\nMannen visar sig vara n&#xE5;gon annan &#xE4;n den han utgett sig f&#xF6;r. \r\nMaria Wern leder utredningen och dras in i ett mystiskt f&#xF6;rsvinnande med ryska kopplingar.\r\n\r\nI rollerna\r\nEva R&#xF6;se, Erik Johansson, Allan Svensson, Peter Perski, Ulf Friberg, Oscar Pettersson, Sigrid Johnson\r\n\r\nVideo Info:\r\n\r\nComplete name                            : Maria.Wern.2018.SWEDISH.WEBRiP.S07E02.eNJoY-iT.mp4\r\nFormat                                   : MPEG-4\r\nFormat profile                           : Base Media\r\nCodec ID                                 : isom (isom/iso2/avc1/mp41)\r\nFile size                                : 1.55 GiB\r\nDuration                                 : 1 h 26 min\r\nOverall bit rate mode                    : Variable\r\nOverall bit rate                         : 2 570 kb/s\r\nWriting application                      : Lavf54.63.104\r\n\r\nVideo\r\nID                                       : 1\r\nFormat                                   : AVC\r\nFormat/Info                              : Advanced Video Codec\r\nFormat profile                           : High@L3.1\r\nFormat settings                          : CABAC / 2 Ref Frames\r\nFormat settings, CABAC                   : Yes\r\nFormat settings, RefFrames               : 2 frames\r\nCodec ID                                 : avc1\r\nCodec ID/Info                            : Advanced Video Coding\r\nDuration                                 : 1 h 26 min\r\nBit rate mode                            : Variable\r\nBit rate                                 : 2 430 kb/s\r\nMaximum bit rate                         : 11.2 Mb/s\r\nWidth                                    : 1 280 pixels\r\nHeight                                   : 720 pixels\r\nDisplay aspect ratio                     : 16:9\r\nFrame rate mode                          : Variable\r\nFrame rate                               : 30.000 FPS\r\nMinimum frame rate                       : 29.412 FPS\r\nMaximum frame rate                       : 30.303 FPS\r\nColor space                              : YUV\r\nChroma subsampling                       : 4:2:0\r\nBit depth                                : 8 bits\r\nScan type                                : Progressive\r\nBits/(Pixel*Frame)                       : 0.088\r\nStream size                              : 1.47 GiB (95%)\r\nColor range                              : Limited\r\nMatrix coefficients                      : BT.470 System B/G\r\n\r\nAudio\r\nID                                       : 2\r\nFormat                                   : AAC\r\nFormat/Info                              : Advanced Audio Codec\r\nFormat profile                           : LC\r\nCodec ID                                 : mp4a-40-2\r\nDuration                                 : 1 h 26 min\r\nBit rate mode                            : Constant\r\nBit rate                                 : 129 kb/s\r\nChannel(s)                               : 2 channels\r\nChannel positions                        : Front: L R\r\nSampling rate                            : 44.1 kHz\r\nFrame rate                               : 43.066 FPS (1024 SPF)\r\nCompression mode                         : Lossy\r\nStream size                              : 79.5 MiB (5%)\r\nDefault                                  : Yes\r\nAlternate group                          : 1","last_updated":"2018-08-16T12:09:39.061Z","parsed":{"xt":"urn:btih:ec4eceae3b5847f004108eeb9b1f34ca8d2ff78f","dn":"Maria.Wern.2018.SWEDISH.WEBRiP.S07E02.eNJoY-iT","tr":["udp://exodus.desync.com:6969","udp://open.demonii.com:1337","udp://tracker.coppersurfer.tk:6969","udp://tracker.leechers-paradise.org:6969","udp://zer0day.ch:1337"],"infoHash":"ec4eceae3b5847f004108eeb9b1f34ca8d2ff78f","infoHashBuffer":{"type":"Buffer","data":[236,78,206,174,59,88,71,240,4,16,142,235,155,31,52,202,141,47,247,143]},"name":"Maria.Wern.2018.SWEDISH.WEBRiP.S07E02.eNJoY-iT","announce":["udp://exodus.desync.com:6969","udp://open.demonii.com:1337","udp://tracker.coppersurfer.tk:6969","udp://tracker.leechers-paradise.org:6969","udp://zer0day.ch:1337"],"urlList":[]}}